<svg width="24" height="25" viewBox="0 0 24 25" fill="none" xmlns="http://www.w3.org/2000/svg">
<path d="M21.8055 10.2415H21V10.2H12V14.2H17.6515C16.827 16.5285 14.6115 18.2 12 18.2C8.6865 18.2 6 15.5135 6 12.2C6 8.88645 8.6865 6.19995 12 6.19995C13.5295 6.19995 14.921 6.77695 15.9805 7.71945L18.809 4.89095C17.023 3.22645 14.634 2.19995 12 2.19995C6.4775 2.19995 2 6.67745 2 12.2C2 17.7225 6.4775 22.2 12 22.2C17.5225 22.2 22 17.7225 22 12.2C22 11.5295 21.931 10.875 21.8055 10.2415Z" fill="#FFC107"/>
<path d="M3.15308 7.54545L6.43858 9.95495C7.32758 7.75395 9.48058 6.19995 12.0001 6.19995C13.5296 6.19995 14.9211 6.77695 15.9806 7.71945L18.8091 4.89095C17.0231 3.22645 14.6341 2.19995 12.0001 2.19995C8.15908 2.19995 4.82808 4.36845 3.15308 7.54545Z" fill="#FF3D00"/>
<path d="M11.9999 22.2001C14.5829 22.2001 16.9299 21.2115 18.7044 19.604L15.6094 16.9851C14.5717 17.7742 13.3036 18.2011 11.9999 18.2001C9.39891 18.2001 7.19041 16.5416 6.35841 14.2271L3.09741 16.7395C4.75241 19.978 8.11341 22.2001 11.9999 22.2001Z" fill="#4CAF50"/>
<path d="M21.8055 10.2415H21V10.2H12V14.2H17.6515C17.2571 15.3082 16.5467 16.2765 15.608 16.9855L15.6095 16.9845L18.7045 19.6035C18.4855 19.8025 22 17.2 22 12.2C22 11.5295 21.931 10.875 21.8055 10.2415Z" fill="#1976D2"/>
</svg>
