<svg width="120" height="32" viewBox="0 0 120 32" fill="none" xmlns="http://www.w3.org/2000/svg">
<path d="M104.687 7.28796L102.126 23.3381C102.117 23.3971 102.12 23.4574 102.137 23.5149C102.153 23.5723 102.181 23.6256 102.22 23.6708C102.26 23.7161 102.308 23.7523 102.363 23.7768C102.417 23.8014 102.476 23.8138 102.536 23.8131H105.567C105.674 23.8141 105.778 23.7767 105.859 23.7079C105.941 23.6391 105.995 23.5434 106.012 23.4381L108.573 7.38793C108.583 7.32899 108.579 7.26868 108.563 7.21121C108.547 7.15374 108.518 7.10052 108.479 7.05526C108.44 7.01 108.392 6.97381 108.337 6.94922C108.283 6.92464 108.223 6.91225 108.163 6.91293H105.133C105.026 6.91081 104.921 6.9477 104.839 7.01671C104.757 7.08573 104.703 7.18214 104.687 7.28796ZM101.451 11.9718H98.5756C98.4688 11.9707 98.3652 12.0079 98.2835 12.0766C98.2019 12.1454 98.1477 12.241 98.1307 12.3462L98.0356 12.9371C98.0356 12.9371 95.8022 10.5213 91.8479 12.1539C89.5794 13.0886 88.4905 15.0198 88.0271 16.4347C88.0271 16.4347 86.5564 20.7345 89.8826 23.1013C89.8826 23.1013 92.9669 25.3776 96.4398 22.9612L96.3798 23.3381C96.3659 23.4267 96.3815 23.5173 96.4242 23.5962C96.4668 23.6751 96.5342 23.7379 96.616 23.7749C96.6703 23.8004 96.7296 23.8131 96.7896 23.8131H99.6671C99.7743 23.8153 99.8787 23.7784 99.9607 23.7094C100.043 23.6403 100.097 23.5439 100.113 23.4381L101.863 12.4468C101.873 12.3879 101.869 12.3276 101.853 12.2702C101.836 12.2129 101.807 12.1599 101.768 12.1151C101.729 12.0694 101.68 12.0328 101.625 12.008C101.571 11.9831 101.511 11.9712 101.451 11.9718ZM97.2199 18.0462C97.1077 18.8142 96.7184 19.5149 96.1252 20.0169C95.5294 20.5208 94.7711 20.7928 93.9901 20.7829C93.6838 20.7865 93.3788 20.7422 93.0862 20.6518C91.8447 20.257 91.1362 19.0765 91.3398 17.7966C91.4529 17.0291 91.8426 16.3289 92.4358 15.8272C93.0311 15.3231 93.7888 15.0502 94.5696 15.0587C94.876 15.0555 95.181 15.1002 95.4735 15.1911C96.7226 15.5833 97.4279 16.7658 97.223 18.0469H97.2199V18.0462ZM81.865 18.35C83.4243 18.35 84.9326 17.7973 86.1173 16.7925C87.2995 15.7911 88.0823 14.3998 88.3233 12.8715C88.8269 9.69227 86.319 6.91739 82.7637 6.91739H77.0362C76.9293 6.91636 76.8256 6.95366 76.744 7.02249C76.6623 7.09132 76.6082 7.18711 76.5913 7.29242L74.0299 23.3426C74.016 23.4311 74.0315 23.5218 74.0742 23.6007C74.1168 23.6796 74.1842 23.7423 74.266 23.7794C74.3209 23.8049 74.3796 23.8176 74.4396 23.8176H77.4722C77.5791 23.8186 77.6828 23.7813 77.7644 23.7125C77.8461 23.6437 77.9003 23.5479 77.9171 23.4426L78.669 18.7295C78.6848 18.6235 78.7387 18.5269 78.8207 18.4578C78.9027 18.3887 79.0072 18.3517 79.1145 18.3538L81.865 18.35ZM84.4016 12.727C84.2145 13.9024 83.2967 14.7677 81.5407 14.7677H79.2958L79.9775 10.4933H82.1822C83.9975 10.4965 84.5886 11.5566 84.4016 12.7301V12.727Z" fill="#0070E0"/>
<path d="M70.5747 12.2445L67.1062 18.042L65.3458 12.2872C65.3183 12.1953 65.2615 12.1149 65.1841 12.0581C65.1068 12.0012 65.013 11.971 64.9169 11.972H61.7867C61.7057 11.9709 61.627 11.999 61.5652 12.0512C61.5034 12.1034 61.4626 12.1761 61.4503 12.256C61.4427 12.3089 61.4481 12.3629 61.4662 12.4133L64.6207 22.1069L61.7675 26.6748C61.7433 26.7124 61.727 26.7546 61.7197 26.7987C61.7124 26.8428 61.7141 26.8879 61.7249 26.9313C61.7356 26.9747 61.7551 27.0154 61.7822 27.051C61.8093 27.0866 61.8434 27.1164 61.8824 27.1384C61.9346 27.1683 61.9939 27.1837 62.0541 27.183H65.4256C65.5218 27.1833 65.6165 27.1588 65.7005 27.112C65.7844 27.0651 65.8549 26.9975 65.905 26.9155L74.716 12.4827C74.7479 12.4324 74.7655 12.3744 74.7667 12.3149C74.768 12.2554 74.7528 12.1967 74.723 12.1452C74.6933 12.0935 74.6502 12.0507 74.5982 12.0212C74.5462 11.9918 74.4873 11.9768 74.4275 11.9777H71.0573C70.9606 11.9768 70.8653 12.0009 70.7808 12.0477C70.6962 12.0945 70.6252 12.1623 70.5747 12.2445ZM60.0122 11.972H57.1341C57.027 11.971 56.9232 12.0083 56.8414 12.0773C56.7596 12.1462 56.7054 12.2422 56.6886 12.3477L56.5954 12.9379C56.5954 12.9379 54.3601 10.5222 50.4058 12.1547C48.1379 13.0895 47.0484 15.0207 46.5869 16.4355C46.5869 16.4355 45.115 20.7354 48.4405 23.1021C48.4405 23.1021 51.5254 25.3784 54.9984 22.962L54.9384 23.339C54.9242 23.4276 54.9397 23.5183 54.9824 23.5972C55.0251 23.6762 55.0926 23.7389 55.1745 23.7758C55.2288 23.8013 55.2881 23.814 55.3481 23.814H58.2256C58.3324 23.8148 58.436 23.7774 58.5176 23.7086C58.5992 23.6398 58.6534 23.5442 58.6705 23.439L60.4213 12.4476C60.4356 12.359 60.4202 12.2681 60.3775 12.189C60.3348 12.11 60.2672 12.0471 60.1852 12.0102C60.1307 11.9852 60.0721 11.9722 60.0122 11.972ZM55.7803 18.0477C55.667 18.8147 55.2776 19.5144 54.6849 20.0159C54.0895 20.5197 53.3319 20.7923 52.5511 20.7838C52.2453 20.7872 51.9407 20.7429 51.6486 20.6526C50.4077 20.2578 49.6998 19.0773 49.9035 17.7968C50.0169 17.0276 50.408 16.3261 51.0033 15.8242C51.6008 15.3201 52.3609 15.0485 53.1435 15.0595C53.4498 15.0563 53.7556 15.1009 54.0479 15.192C55.2843 15.5842 55.9884 16.766 55.7841 18.0477H55.7803ZM40.426 18.3508C41.9827 18.35 43.4885 17.7973 44.6745 16.7914C45.8557 15.7901 46.6375 14.3993 46.8779 12.8717C47.3822 9.69313 44.8737 6.91824 41.3196 6.91824H35.5915C35.4847 6.91717 35.381 6.95435 35.2992 7.02305C35.2175 7.09174 35.1631 7.18739 35.146 7.29264L32.5928 23.3384C32.5786 23.427 32.594 23.5179 32.6366 23.597C32.6793 23.676 32.7469 23.7389 32.829 23.7758C32.8833 23.8006 32.9426 23.814 33.0026 23.814H36.0333C36.1403 23.815 36.2442 23.7776 36.326 23.7087C36.4077 23.6397 36.462 23.5438 36.4788 23.4383L37.2294 18.7252C37.2454 18.6194 37.2994 18.523 37.3814 18.454C37.4633 18.3849 37.5677 18.3481 37.675 18.3502L40.426 18.3508ZM42.9626 12.7272C42.7756 13.9026 41.8584 14.7679 40.1024 14.7679H37.8575L38.5379 10.4935H40.7426C42.5586 10.4967 43.149 11.5575 42.9626 12.7304V12.7272Z" fill="#003087"/>
<path d="M20.8334 7.74266C20.9017 4.19859 17.9713 1.47974 13.9417 1.47974H5.60684C5.41261 1.47965 5.22473 1.54875 5.07704 1.67459C4.92936 1.80043 4.83157 1.97475 4.80131 2.16614L1.46173 22.9829C1.44679 23.0772 1.45252 23.1737 1.47853 23.2656C1.50453 23.3575 1.5502 23.4427 1.61238 23.5153C1.67456 23.5879 1.75178 23.6462 1.83872 23.6862C1.92566 23.7262 2.02025 23.747 2.11599 23.747H7.05386L6.28216 28.5671C6.26722 28.6614 6.27295 28.7578 6.29895 28.8498C6.32496 28.9417 6.37062 29.0269 6.4328 29.0995C6.49498 29.1721 6.5722 29.2304 6.65914 29.2704C6.74608 29.3104 6.84068 29.3311 6.93641 29.3311H10.959C11.153 29.3311 11.326 29.2617 11.4741 29.1363C11.6209 29.0102 11.6451 28.8364 11.6758 28.6447L12.8566 21.7145C12.8866 21.5235 12.9843 21.2752 13.1317 21.1491C13.2792 21.023 13.4081 20.9543 13.6028 20.9543H16.0641C20.0107 20.9543 23.3585 18.1558 23.9707 14.2641C24.4041 11.5019 23.2168 8.98875 20.8334 7.74266Z" fill="#001C64"/>
<path d="M8.12242 16.0698L6.89242 23.8494L6.12008 28.7294C6.10523 28.8237 6.11105 28.9201 6.13714 29.012C6.16323 29.1039 6.20897 29.189 6.27121 29.2616C6.33345 29.3341 6.41071 29.3924 6.49768 29.4323C6.58464 29.4722 6.67924 29.4929 6.77497 29.4928H11.0324C11.2265 29.4927 11.4141 29.4235 11.5616 29.2977C11.709 29.1718 11.8066 28.9976 11.8367 28.8064L12.9588 21.7138C12.9891 21.5225 13.0867 21.3483 13.2343 21.2225C13.3818 21.0966 13.5696 21.0275 13.7637 21.0274H16.2697C20.2162 21.0274 23.5641 18.1557 24.1769 14.264C24.6109 11.5019 23.2169 8.98803 20.8335 7.74194C20.8271 8.03611 20.8016 8.32965 20.7563 8.62064C20.1441 12.5111 16.795 15.3834 12.8497 15.3834H8.92731C8.73313 15.3836 8.5454 15.4529 8.39786 15.5789C8.25032 15.7048 8.15266 15.8785 8.12242 16.0698Z" fill="#0070E0"/>
</svg>
