<svg width="20" height="20" viewBox="0 0 20 20" fill="none" xmlns="http://www.w3.org/2000/svg">
<mask id="mask0_92_3046" style="mask-type:alpha" maskUnits="userSpaceOnUse" x="0" y="0" width="20" height="20">
<rect width="20" height="20" fill="#D9D9D9"/>
</mask>
<g mask="url(#mask0_92_3046)">
<path d="M9.95841 15.0001C10.2501 15.0001 10.4966 14.8994 10.698 14.698C10.8994 14.4966 11.0001 14.2501 11.0001 13.9584C11.0001 13.6667 10.8994 13.4202 10.698 13.2188C10.4966 13.0174 10.2501 12.9167 9.95841 12.9167C9.66675 12.9167 9.42022 13.0174 9.21883 13.2188C9.01744 13.4202 8.91675 13.6667 8.91675 13.9584C8.91675 14.2501 9.01744 14.4966 9.21883 14.698C9.42022 14.8994 9.66675 15.0001 9.95841 15.0001ZM9.20841 11.7917H10.7501C10.7501 11.3334 10.8022 10.9723 10.9063 10.7084C11.0105 10.4445 11.3056 10.0834 11.7917 9.62508C12.1529 9.26397 12.4376 8.92022 12.6459 8.59383C12.8542 8.26744 12.9584 7.87508 12.9584 7.41675C12.9584 6.63897 12.6737 6.04175 12.1042 5.62508C11.5348 5.20841 10.8612 5.00008 10.0834 5.00008C9.29175 5.00008 8.64939 5.20841 8.15633 5.62508C7.66328 6.04175 7.31953 6.54175 7.12508 7.12508L8.50008 7.66675C8.56953 7.41675 8.72578 7.14591 8.96883 6.85425C9.21189 6.56258 9.58342 6.41675 10.0834 6.41675C10.5279 6.41675 10.8612 6.53828 11.0834 6.78133C11.3056 7.02439 11.4167 7.29175 11.4167 7.58341C11.4167 7.86119 11.3334 8.12161 11.1667 8.36467C11.0001 8.60772 10.7917 8.83342 10.5417 9.04175C9.93064 9.58342 9.55564 9.99314 9.41675 10.2709C9.27786 10.5487 9.20841 11.0556 9.20841 11.7917ZM10.0001 18.3334C8.8473 18.3334 7.76397 18.1147 6.75008 17.6772C5.73619 17.2397 4.85425 16.6459 4.10425 15.8959C3.35425 15.1459 2.7605 14.264 2.323 13.2501C1.8855 12.2362 1.66675 11.1529 1.66675 10.0001C1.66675 8.8473 1.8855 7.76397 2.323 6.75008C2.7605 5.73619 3.35425 4.85425 4.10425 4.10425C4.85425 3.35425 5.73619 2.7605 6.75008 2.323C7.76397 1.8855 8.8473 1.66675 10.0001 1.66675C11.1529 1.66675 12.2362 1.8855 13.2501 2.323C14.264 2.7605 15.1459 3.35425 15.8959 4.10425C16.6459 4.85425 17.2397 5.73619 17.6772 6.75008C18.1147 7.76397 18.3334 8.8473 18.3334 10.0001C18.3334 11.1529 18.1147 12.2362 17.6772 13.2501C17.2397 14.264 16.6459 15.1459 15.8959 15.8959C15.1459 16.6459 14.264 17.2397 13.2501 17.6772C12.2362 18.1147 11.1529 18.3334 10.0001 18.3334ZM10.0001 16.6667C11.8612 16.6667 13.4376 16.0209 14.7292 14.7292C16.0209 13.4376 16.6667 11.8612 16.6667 10.0001C16.6667 8.13897 16.0209 6.56258 14.7292 5.27091C13.4376 3.97925 11.8612 3.33341 10.0001 3.33341C8.13897 3.33341 6.56258 3.97925 5.27091 5.27091C3.97925 6.56258 3.33341 8.13897 3.33341 10.0001C3.33341 11.8612 3.97925 13.4376 5.27091 14.7292C6.56258 16.0209 8.13897 16.6667 10.0001 16.6667Z" fill="#151515"/>
</g>
</svg>
