<svg width="150" height="30" viewBox="0 0 150 30" fill="none" xmlns="http://www.w3.org/2000/svg">
<path d="M13.0979 5.8541C13.6966 4.01148 16.3034 4.01148 16.9021 5.8541L17.9187 8.98278C18.1864 9.80682 18.9543 10.3647 19.8208 10.3647H23.1105C25.0479 10.3647 25.8535 12.844 24.2861 13.9828L21.6246 15.9164C20.9237 16.4257 20.6304 17.3284 20.8981 18.1525L21.9147 21.2812C22.5134 23.1238 20.4044 24.656 18.837 23.5172L16.1756 21.5836C15.4746 21.0743 14.5254 21.0743 13.8244 21.5836L11.163 23.5172C9.59559 24.656 7.48663 23.1238 8.08533 21.2812L9.1019 18.1525C9.36965 17.3284 9.07633 16.4257 8.37536 15.9164L5.71395 13.9828C4.14652 12.844 4.95207 10.3647 6.88952 10.3647H10.1792C11.0457 10.3647 11.8136 9.80682 12.0813 8.98278L13.0979 5.8541Z" fill="#FF9900"/>
<path d="M43.0979 5.8541C43.6966 4.01148 46.3034 4.01148 46.9021 5.8541L47.9187 8.98278C48.1864 9.80682 48.9543 10.3647 49.8208 10.3647H53.1105C55.0479 10.3647 55.8535 12.844 54.2861 13.9828L51.6246 15.9164C50.9237 16.4257 50.6304 17.3284 50.8981 18.1525L51.9147 21.2812C52.5134 23.1238 50.4044 24.656 48.837 23.5172L46.1756 21.5836C45.4746 21.0743 44.5254 21.0743 43.8244 21.5836L41.163 23.5172C39.5956 24.656 37.4866 23.1238 38.0853 21.2812L39.1019 18.1525C39.3697 17.3284 39.0763 16.4257 38.3754 15.9164L35.714 13.9828C34.1465 12.844 34.9521 10.3647 36.8895 10.3647H40.1792C41.0457 10.3647 41.8136 9.80682 42.0813 8.98278L43.0979 5.8541Z" fill="#FF9900"/>
<path d="M73.0979 5.8541C73.6966 4.01148 76.3034 4.01148 76.9021 5.8541L77.9187 8.98278C78.1864 9.80682 78.9543 10.3647 79.8208 10.3647H83.1105C85.0479 10.3647 85.8535 12.844 84.2861 13.9828L81.6246 15.9164C80.9237 16.4257 80.6304 17.3284 80.8981 18.1525L81.9147 21.2812C82.5134 23.1238 80.4044 24.656 78.837 23.5172L76.1756 21.5836C75.4746 21.0743 74.5254 21.0743 73.8244 21.5836L71.163 23.5172C69.5956 24.656 67.4866 23.1238 68.0853 21.2812L69.1019 18.1525C69.3697 17.3284 69.0763 16.4257 68.3754 15.9164L65.714 13.9828C64.1465 12.844 64.9521 10.3647 66.8895 10.3647H70.1792C71.0457 10.3647 71.8136 9.80682 72.0813 8.98278L73.0979 5.8541Z" fill="#FF9900"/>
<path d="M103.098 5.8541C103.697 4.01148 106.303 4.01148 106.902 5.8541L107.919 8.98278C108.186 9.80682 108.954 10.3647 109.821 10.3647H113.11C115.048 10.3647 115.853 12.844 114.286 13.9828L111.625 15.9164C110.924 16.4257 110.63 17.3284 110.898 18.1525L111.915 21.2812C112.513 23.1238 110.404 24.656 108.837 23.5172L106.176 21.5836C105.475 21.0743 104.525 21.0743 103.824 21.5836L101.163 23.5172C99.5956 24.656 97.4866 23.1238 98.0853 21.2812L99.1019 18.1525C99.3697 17.3284 99.0763 16.4257 98.3754 15.9164L95.714 13.9828C94.1465 12.844 94.9521 10.3647 96.8895 10.3647H100.179C101.046 10.3647 101.814 9.80682 102.081 8.98278L103.098 5.8541Z" fill="#FF9900"/>
<path d="M133.098 5.8541C133.697 4.01148 136.303 4.01148 136.902 5.8541L137.919 8.98278C138.186 9.80682 138.954 10.3647 139.821 10.3647H143.11C145.048 10.3647 145.853 12.844 144.286 13.9828L141.625 15.9164C140.924 16.4257 140.63 17.3284 140.898 18.1525L141.915 21.2812C142.513 23.1238 140.404 24.656 138.837 23.5172L136.176 21.5836C135.475 21.0743 134.525 21.0743 133.824 21.5836L131.163 23.5172C129.596 24.656 127.487 23.1238 128.085 21.2812L129.102 18.1525C129.37 17.3284 129.076 16.4257 128.375 15.9164L125.714 13.9828C124.147 12.844 124.952 10.3647 126.89 10.3647H130.179C131.046 10.3647 131.814 9.80682 132.081 8.98278L133.098 5.8541Z" fill="#FF9900" fill-opacity="0.3"/>
<path d="M133.32 5.17254C133.895 3.40298 136.363 3.30859 137.071 5.02907L138.35 8.13415C138.449 8.37571 138.5 8.63442 138.5 8.89565V11L138.109 20.0032C138.06 21.1343 136.823 21.8052 135.848 21.2298C135.333 20.926 134.687 20.9568 134.204 21.308L131.163 23.5172C129.596 24.656 127.487 23.1238 128.086 21.2812L129.102 18.1525C129.37 17.3284 129.077 16.4257 128.376 15.9164L125.714 13.9828C124.147 12.844 124.952 10.3647 126.89 10.3647H130.179C131.046 10.3647 131.814 9.80682 132.082 8.98278L133.32 5.17254Z" fill="#FF9900"/>
</svg>
