<svg width="48" height="48" viewBox="0 0 48 48" fill="none" xmlns="http://www.w3.org/2000/svg">
<rect width="48" height="48" rx="24" fill="#F8F8F8"/>
<path d="M24 33.175L22.55 31.875C20.8667 30.3583 19.475 29.05 18.375 27.95C17.275 26.85 16.4 25.8625 15.75 24.9875C15.1 24.1125 14.6458 23.3083 14.3875 22.575C14.1292 21.8416 14 21.0916 14 20.325C14 18.7583 14.525 17.45 15.575 16.4C16.625 15.35 17.9333 14.825 19.5 14.825C20.3667 14.825 21.1917 15.0083 21.975 15.375C22.7583 15.7416 23.4333 16.2583 24 16.925C24.5667 16.2583 25.2417 15.7416 26.025 15.375C26.8083 15.0083 27.6333 14.825 28.5 14.825C30.0667 14.825 31.375 15.35 32.425 16.4C33.475 17.45 34 18.7583 34 20.325C34 21.0916 33.8708 21.8416 33.6125 22.575C33.3542 23.3083 32.9 24.1125 32.25 24.9875C31.6 25.8625 30.725 26.85 29.625 27.95C28.525 29.05 27.1333 30.3583 25.45 31.875L24 33.175ZM24 30.475C25.6 29.0416 26.9167 27.8125 27.95 26.7875C28.9833 25.7625 29.8 24.8708 30.4 24.1125C31 23.3541 31.4167 22.6791 31.65 22.0875C31.8833 21.4958 32 20.9083 32 20.325C32 19.325 31.6667 18.4916 31 17.825C30.3333 17.1583 29.5 16.825 28.5 16.825C27.7167 16.825 26.9917 17.0458 26.325 17.4875C25.6583 17.9291 25.2 18.4916 24.95 19.175H23.05C22.8 18.4916 22.3417 17.9291 21.675 17.4875C21.0083 17.0458 20.2833 16.825 19.5 16.825C18.5 16.825 17.6667 17.1583 17 17.825C16.3333 18.4916 16 19.325 16 20.325C16 20.9083 16.1167 21.4958 16.35 22.0875C16.5833 22.6791 17 23.3541 17.6 24.1125C18.2 24.8708 19.0167 25.7625 20.05 26.7875C21.0833 27.8125 22.4 29.0416 24 30.475Z" fill="#696969"/>
</svg>
