<svg width="144" height="48" viewBox="0 0 144 48" fill="none" xmlns="http://www.w3.org/2000/svg">
<rect x="-0.25" y="0.25" width="47.5" height="47.5" rx="7.75" transform="matrix(-1 0 0 1 47.5 0)" stroke="#1E2019" stroke-width="0.5"/>
<path d="M21 31L22.425 29.6L17.825 25H34V23H17.825L22.4 18.4L21 17L14 24L21 31Z" fill="#1C1B1F"/>
<rect x="60" width="84" height="48" rx="8" fill="#1E2019"/>
<path d="M132.707 24.7071C133.098 24.3166 133.098 23.6834 132.707 23.2929L126.343 16.9289C125.953 16.5384 125.319 16.5384 124.929 16.9289C124.538 17.3195 124.538 17.9526 124.929 18.3431L130.586 24L124.929 29.6569C124.538 30.0474 124.538 30.6805 124.929 31.0711C125.319 31.4616 125.953 31.4616 126.343 31.0711L132.707 24.7071ZM72 25H132V23H72V25Z" fill="#FCFCFC"/>
</svg>
