<svg width="48" height="48" viewBox="0 0 48 48" fill="none" xmlns="http://www.w3.org/2000/svg">
<rect width="48" height="48" rx="24" fill="#EF4261"/>
<path d="M17.86 30.7C16.1667 30.7 14.86 30.1267 13.94 28.98C13.0333 27.8333 12.58 26.14 12.58 23.9C12.58 21.66 13.0333 19.9667 13.94 18.82C14.86 17.6733 16.1667 17.1 17.86 17.1C19.5533 17.1 20.8533 17.6733 21.76 18.82C22.68 19.9667 23.14 21.66 23.14 23.9C23.14 26.14 22.68 27.8333 21.76 28.98C20.8533 30.1267 19.5533 30.7 17.86 30.7ZM17.86 28.48C18.4333 28.48 18.9 28.32 19.26 28C19.6333 27.6667 19.9133 27.1667 20.1 26.5C20.2867 25.82 20.38 24.9533 20.38 23.9C20.38 22.8467 20.2867 21.9867 20.1 21.32C19.9133 20.64 19.6333 20.14 19.26 19.82C18.9 19.4867 18.4333 19.32 17.86 19.32C17.2867 19.32 16.8133 19.4867 16.44 19.82C16.0667 20.14 15.7867 20.64 15.6 21.32C15.4267 21.9867 15.34 22.8467 15.34 23.9C15.34 24.9533 15.4267 25.82 15.6 26.5C15.7867 27.1667 16.0667 27.6667 16.44 28C16.8133 28.32 17.2867 28.48 17.86 28.48ZM24.9461 17.3H35.4061V19.4C34.2994 20.5067 33.4194 21.6467 32.7661 22.82C32.1128 23.9933 31.6394 25.2133 31.3461 26.48C31.0661 27.7467 30.9261 29.0867 30.9261 30.5H28.1861C28.1861 29.0333 28.3661 27.6267 28.7261 26.28C29.0994 24.92 29.6661 23.6267 30.4261 22.4C31.1994 21.16 32.1794 19.9733 33.3661 18.84L33.9261 19.56H24.9461V17.3Z" fill="#FCFCFC"/>
</svg>
